# xmcd
#
# Track frame offsets: 
#        150
#        15114
#        31624
#        45403
#        62712
#        85214
#        103343
#        117423
#        134489
#        149201
#        167160
#        184853
#
# Disc length: 2706 seconds
#
# Revision: 0
# Processed by: cddbd v1.5.2PL0 Copyright (c) Steve Scherf et al.
# Submitted via: ExactAudioCopy v1.2
#
DISCID=a30a900c
DTITLE=Songhoy Blues - Résistance
DYEAR=2017
DGENRE=Blues
TTITLE0=Voter
TTITLE1=Bamako
TTITLE2=Sahara (feat. Iggy Pop)
TTITLE3=Yersi Yadda
TTITLE4=Hometown
TTITLE5=Badji
TTITLE6=Dabari
TTITLE7=Ici Bas
TTITLE8=Ir Ma Sobay
TTITLE9=Mali Nord
TTITLE10=Alhakou
TTITLE11=One Colour
EXTD=
EXTT0=
EXTT1=
EXTT2=
EXTT3=
EXTT4=
EXTT5=
EXTT6=
EXTT7=
EXTT8=
EXTT9=
EXTT10=
EXTT11=
PLAYORDER=
